<svg xmlns="http://www.w3.org/2000/svg" width="810" height="490" viewBox="0 0 810 490" role="img" aria-labelledby="title desc"><title id="title">ろか · ROKA IZUMI</title><desc id="desc">Hand-lettered hiragana brand mark with candle flame</desc><path fill="#382d31" fill-rule="evenodd" d="M527 17 L549 17 L561 20 L574 27 L582 36 L584 42 L585 55 L583 63 L570 86 L555 123 L557 124 L582 119 L605 119 L619 122 L637 132 L645 140 L653 154 L660 180 L661 214 L655 255 L647 282 L629 319 L616 337 L609 343 L609 345 L586 364 L574 370 L563 373 L547 373 L538 369 L534 365 L519 333 L492 299 L493 297 L509 313 L532 328 L541 331 L558 331 L576 322 L588 310 L598 296 L610 272 L617 252 L624 216 L625 181 L621 161 L615 149 L600 138 L592 136 L571 136 L560 138 L546 144 L535 173 L498 247 L496 248 L493 256 L491 257 L488 265 L486 266 L468 299 L444 336 L441 338 L436 347 L423 360 L414 364 L404 363 L397 358 L393 351 L392 338 L395 328 L403 317 L435 285 L435 283 L444 274 L458 253 L461 251 L485 212 L509 161 L506 161 L505 163 L464 185 L452 188 L436 187 L421 179 L411 167 L406 155 L405 136 L407 136 L414 143 L426 148 L454 149 L484 143 L519 132 L532 89 L536 66 L536 47 L531 34 L525 28 L514 22 L527 17 Z M234 22 L254 23 L274 32 L281 39 L284 45 L284 60 L276 67 L264 73 L224 100 L200 118 L197 122 L187 128 L184 132 L182 132 L146 164 L144 164 L131 178 L129 178 L107 201 L103 208 L148 185 L170 177 L195 171 L232 169 L256 172 L275 177 L293 185 L315 200 L324 209 L335 226 L342 252 L341 272 L336 289 L329 303 L321 314 L305 330 L280 347 L244 363 L219 370 L168 377 L125 378 L91 376 L94 374 L138 368 L170 360 L211 345 L244 326 L269 303 L277 292 L287 268 L288 241 L284 228 L277 215 L270 207 L254 195 L228 186 L201 185 L186 187 L156 196 L136 206 L115 220 L85 247 L85 249 L56 282 L56 284 L49 290 L45 292 L33 292 L27 289 L20 280 L18 266 L21 255 L28 245 L56 219 L58 219 L66 210 L68 210 L81 196 L83 196 L164 116 L164 114 L192 86 L192 84 L204 72 L212 60 L211 54 L206 52 L188 56 L165 68 L139 88 L128 94 L117 97 L105 97 L89 91 L79 82 L68 62 L65 45 L67 44 L73 50 L89 57 L100 59 L130 58 L174 45 L216 27 L234 22 Z M761 73 L766 91 L787 116 L795 137 L795 152 L790 168 L782 182 L771 194 L780 205 L789 221 L792 233 L792 245 L789 255 L784 263 L776 271 L765 277 L744 282 L714 281 L714 279 L726 273 L737 262 L743 252 L746 241 L746 222 L744 213 L735 195 L718 178 L695 165 L677 159 L700 160 L724 166 L750 178 L764 188 L769 194 L771 194 L776 183 L779 170 L779 156 L775 140 L771 132 L768 130 L764 139 L764 153 L767 160 L766 162 L757 153 L755 153 L755 151 L748 144 L742 126 L742 114 L747 95 L753 83 L761 73 Z M118 428 L137 428 L148 433 L149 442 L146 446 L140 448 L140 450 L146 456 L148 461 L155 466 L146 466 L134 449 L129 449 L129 463 L133 465 L133 467 L118 466 L123 463 L123 431 L118 430 L118 428 Z M197 428 L213 429 L221 436 L223 440 L223 455 L221 459 L213 466 L197 467 L189 463 L185 458 L183 452 L184 438 L189 432 L197 428 Z M204 429 L196 431 L190 440 L190 455 L192 460 L198 465 L210 464 L214 461 L217 455 L216 438 L212 432 L204 429 Z M253 428 L268 428 L268 430 L265 430 L263 433 L264 447 L278 435 L280 431 L277 430 L277 428 L290 428 L290 430 L285 431 L271 445 L285 459 L285 461 L290 465 L293 465 L293 467 L277 467 L277 465 L280 464 L279 461 L267 448 L263 449 L263 463 L264 465 L268 466 L253 467 L253 465 L256 465 L258 462 L258 432 L253 430 L253 428 Z M341 428 L343 429 L343 432 L348 440 L357 464 L361 466 L347 467 L347 465 L350 464 L347 454 L332 454 L329 460 L329 465 L332 465 L332 467 L322 467 L321 465 L324 465 L329 457 L331 449 L341 428 Z M427 428 L443 428 L443 430 L438 432 L438 463 L443 465 L443 467 L428 467 L428 465 L431 465 L433 462 L433 434 L432 431 L427 430 L427 428 Z M476 428 L506 429 L481 463 L490 465 L499 464 L503 462 L507 456 L505 466 L472 466 L491 441 L493 436 L497 433 L497 430 L481 431 L476 435 L476 438 L474 438 L476 428 Z M535 428 L550 428 L550 430 L546 430 L545 432 L545 458 L547 462 L552 465 L563 463 L567 457 L567 432 L562 429 L574 428 L574 430 L569 432 L569 457 L563 466 L547 467 L541 462 L539 455 L539 432 L538 430 L534 430 L535 428 Z M601 428 L613 429 L624 456 L630 447 L636 430 L648 428 L648 430 L644 431 L644 464 L649 466 L633 467 L633 465 L638 463 L637 436 L624 466 L622 466 L609 437 L609 463 L614 465 L614 467 L601 467 L601 465 L606 464 L607 458 L606 431 L601 430 L601 428 Z M687 428 L693 428 L693 430 L690 430 L688 433 L688 461 L690 465 L693 465 L693 467 L678 466 L683 463 L683 433 L678 429 L687 428 Z M131 430 L129 431 L129 447 L137 447 L141 445 L143 436 L140 432 L131 430 Z M340 436 L333 450 L334 452 L346 452 L340 436 Z"/></svg>